<?xml version="1.0" standalone="no"?>
<!DOCTYPE svg PUBLIC "-//W3C//DTD SVG 20010904//EN"
  "http://www.w3.org/TR/2001/REC-SVG-20010904/DTD/svg10.dtd">
<svg version="1.0" xmlns="http://www.w3.org/2000/svg"
     width="260.000000pt" height="260.000000pt" viewBox="0 0 260.000000 260.000000"
     preserveAspectRatio="xMidYMid meet">
  <metadata>
    Created by potrace 1.14, written by Peter Selinger 2001-2017
  </metadata>
  <g transform="translate(0.000000,260.000000) scale(0.100000,-0.100000)"
     fill="#000000" stroke="none">
    <path d="M488 2585 c-101 -28 -194 -105 -243 -200 -24 -48 -47 -152 -70 -320
-3 -22 -12 -78 -20 -125 -8 -47 -17 -103 -20 -125 -3 -22 -10 -65 -15 -95 -5
-30 -12 -68 -14 -85 -3 -16 -12 -75 -21 -130 -10 -63 -28 -126 -48 -170 l-32
-70 0 -290 0 -290 31 -66 c37 -78 92 -136 168 -179 l56 -32 0 -126 c0 -144 14
-188 69 -235 44 -37 96 -48 209 -46 104 2 147 16 189 61 42 44 53 90 53 213
l0 115 520 0 520 0 0 -117 c0 -134 15 -180 69 -226 44 -37 96 -48 209 -46 104
2 147 16 189 61 43 45 53 89 53 223 l0 125 48 24 c61 31 134 101 162 156 47
92 50 119 47 405 l-2 270 -31 66 c-18 37 -35 86 -39 110 -4 24 -9 51 -10 60
-2 9 -6 40 -10 70 -4 30 -8 56 -10 59 -2 3 -6 28 -10 55 -10 69 -12 81 -24
155 -5 36 -12 83 -16 105 -3 22 -7 47 -10 55 -2 8 -6 35 -9 60 -18 140 -47
272 -71 323 -35 74 -124 157 -202 189 l-58 23 -780 2 c-618 1 -790 -1 -827
-12z m1576 -260 c52 -28 66 -57 86 -185 5 -36 11 -74 14 -85 2 -11 6 -41 10
-66 4 -25 9 -57 11 -70 8 -43 55 -344 55 -351 0 -5 -423 -8 -940 -8 -696 0
-940 3 -940 11 0 7 9 64 19 128 11 64 22 134 26 156 3 22 14 94 25 160 10 66
22 140 25 163 10 79 40 133 87 151 13 6 331 10 758 10 641 1 739 -1 764 -14z
m-1407 -1170 c155 -65 164 -280 14 -354 -99 -48 -216 -7 -262 94 -73 157 89
326 248 260z m1430 0 c141 -59 165 -245 43 -334 -102 -73 -240 -38 -291 74
-72 158 89 326 248 260z"/>
    <path d="M620 2183 c-64 -33 -73 -64 -73 -248 -1 -157 0 -165 24 -199 51 -75
165 -75 215 1 15 24 18 51 20 191 1 132 -2 169 -15 194 -33 65 -109 92 -171
61z"/>
  </g>
</svg>
